Bud Spencer :Flatfoot in africa (1978)

Piedone l'Africano (1978)

Alternatieve titels: Inspecteur Platvoet Slaat Alles, Flatfoot in Africa, Inspecteur Bulldozer 
        
  
 
  Italië / West-Duitsland
Actie / Komedie
115 minuten

geregisseerd door Steno
met Bud Spencer, Dagmar Lassander en Werner Pochath

Inspecteur Platvoet oftewel Rizzo (Bud Spencer) wordt naar Afrika gestuurd in verband met een heroine en diamantensmokkel. Hij wordt aldaar bijgestaan door een zwart jongetje in zijn strijd tegen de misdaad.

English

Commissary Rizzo in Napoli gets a message from a policeman from South Africa who wants to meet him. Immediatlz before this meeting the south African policeman is killed. Dying he shows Rizzo a picture of his little son Bodo. Riyyo travels to Johannesburg to find out what the policeman was working on and to find Bodo. 



veel kijk plezier
Spotinformatie 
Categorie : Beeld 
Formaat : DVD5 
Bron : Retail
Audio : English, Italian
 
Ondertitels : Nederlands (instelbaar)

Video
ID                               : 224 (0xE0)
Format                           : MPEG Video
Format version                   : Version 2
Format profile                   : Main@Main
Format settings, Matrix          : Default
Duration                         : 29mn 41s
Bit rate mode                    : Variable
Bit rate                         : 4 246 Kbps
Nominal bit rate                 : 8 000 Kbps
Width                            : 720 pixels
Height                           : 576 pixels
Display aspect ratio             : 16/9
Frame rate                       : 25.000 fps
Standard                         : PAL
Colorimetry                      : 4:2:0
Scan type                        : Interlaced
Scan order                       : Top Field First
Bits/(Pixel*Frame)               : 0.410
Stream size                      : 902 MiB (88%)

Audio #1
ID                               : 128 (0x80)
Format                           : AC-3
Format/Info                      : Audio Coding 3
Duration                         : 29mn 41s
Bit rate mode                    : Constant
Bit rate                         : 192 Kbps
Channel(s)                       : 2 channels
Channel positions                : L R
Sampling rate                    : 48.0 KHz
Video delay                      : -80ms
Stream size                      : 40.8 MiB (4%)
 
Genre : Actie
Komedie 

Weblink :  http://www.moviemeter.nl/film/32444
Weblink :  http://www.imdb.com/title/tt0076544

******************************************

Brought to you by 
Pioen

2Lions Team

meer zien??
Kom dan eens kijken op ons forum 
          
http://www.2lions-site.nl


2Lions the site to be for all your Dutch MOVIES and more

******************************************


DON T HIT AND RUN Niet gelijk afhaken als de FILM binnen is blijf seeden. 

Don`t quit after you finished the download, but keep seeding


There are fake torrents from uploaders who use our team name.
Those are not ours, or members from our team.
We 2Lions-Team are not responsible for the fake posts on our name

Wij 2Lions-Team zijn niet verantwoordelijk voor die zieke FAKE posten die op onze naam worden gedaan